# xmcd
# 
# Track frame offsets:
#     150
#     15573
#     38554
#     57529
#     77879
#     80954
#     95927
#     109116
#     127380
#     141989
#     156529
#     178945
#     181945
# 
# Disc length: 2764
# 
# Revision: 0
# Processed by: cddbd v1.5.2PL0 Copyright (c) Steve Scherf et al.
# Submitted via: fre:ac v1.0.27
# 
DISCID=c40aca0d
DTITLE=Trevor Baker - Bring Me Back
DYEAR=2011
DGENRE=Country
TTITLE0=The First Place
TTITLE1=Bring Me Back
TTITLE2=Bankin' On Heaven
TTITLE3=Lost In God
TTITLE4=Special Moment (Spoken)
TTITLE5=So Dear
TTITLE6=Your Constant Touch
TTITLE7=I Don't Wanna Go Back
TTITLE8=No Place Like Home
TTITLE9=Pickin' Up The Pieces
TTITLE10=He Had To Go
TTITLE11=Times Of Refreshment (Spoken)
TTITLE12=The Spark
EXTD=
EXTT0=
EXTT1=
EXTT2=
EXTT3=
EXTT4=
EXTT5=
EXTT6=
EXTT7=
EXTT8=
EXTT9=
EXTT10=
EXTT11=
EXTT12=
PLAYORDER=
